<mxfile host="app.diagrams.net" modified="2024-02-02T15:59:39.155Z" agent="Mozilla/5.0 (Macintosh; Intel Mac OS X 10.15; rv:122.0) Gecko/20100101 Firefox/122.0" etag="M8oNh-znAbSbP_h-eKMO" version="23.1.1" type="device">
  <diagram name="Page-1" id="5f0bae14-7c28-e335-631c-24af17079c00">
    <mxGraphModel dx="1460" dy="1880" grid="1" gridSize="10" guides="1" tooltips="1" connect="1" arrows="1" fold="1" page="1" pageScale="1" pageWidth="1100" pageHeight="850" background="none" math="0" shadow="0">
      <root>
        <mxCell id="0" />
        <mxCell id="1" parent="0" />
        <mxCell id="USMtU_KTuxHWOxBqBWny-16" style="edgeStyle=orthogonalEdgeStyle;rounded=0;orthogonalLoop=1;jettySize=auto;html=1;entryX=0;entryY=0.5;entryDx=0;entryDy=0;" edge="1" parent="1" source="USMtU_KTuxHWOxBqBWny-5" target="USMtU_KTuxHWOxBqBWny-14">
          <mxGeometry relative="1" as="geometry" />
        </mxCell>
        <mxCell id="USMtU_KTuxHWOxBqBWny-5" value="&lt;div&gt;Container 2&lt;/div&gt;&lt;div&gt;&lt;br&gt;&lt;/div&gt;&lt;div&gt;JAVA 17 / Spring Boot&lt;/div&gt;&lt;div&gt;&lt;br&gt;&lt;/div&gt;&lt;div&gt;Promtail&lt;br&gt;&lt;/div&gt;" style="html=1;whiteSpace=wrap;" vertex="1" parent="1">
          <mxGeometry x="280" y="160" width="160" height="80" as="geometry" />
        </mxCell>
        <mxCell id="USMtU_KTuxHWOxBqBWny-15" style="edgeStyle=orthogonalEdgeStyle;rounded=0;orthogonalLoop=1;jettySize=auto;html=1;entryX=0;entryY=0.5;entryDx=0;entryDy=0;" edge="1" parent="1" source="USMtU_KTuxHWOxBqBWny-6" target="USMtU_KTuxHWOxBqBWny-14">
          <mxGeometry relative="1" as="geometry" />
        </mxCell>
        <mxCell id="USMtU_KTuxHWOxBqBWny-6" value="&lt;div&gt;Container 1&lt;/div&gt;&lt;div&gt;&lt;br&gt;&lt;/div&gt;&lt;div&gt;JAVA 21 / Spring Boot&lt;/div&gt;&lt;div&gt;&lt;br&gt;&lt;/div&gt;&lt;div&gt;Promtail&lt;br&gt;&lt;/div&gt;" style="html=1;whiteSpace=wrap;" vertex="1" parent="1">
          <mxGeometry x="280" y="40" width="160" height="80" as="geometry" />
        </mxCell>
        <mxCell id="USMtU_KTuxHWOxBqBWny-17" style="edgeStyle=orthogonalEdgeStyle;rounded=0;orthogonalLoop=1;jettySize=auto;html=1;" edge="1" parent="1" source="USMtU_KTuxHWOxBqBWny-7">
          <mxGeometry relative="1" as="geometry">
            <mxPoint x="640" y="320" as="targetPoint" />
          </mxGeometry>
        </mxCell>
        <mxCell id="USMtU_KTuxHWOxBqBWny-7" value="&lt;div&gt;Container 3&lt;/div&gt;&lt;div&gt;&lt;br&gt;&lt;/div&gt;&lt;div&gt;Python / Flask&lt;/div&gt;&lt;div&gt;&lt;br&gt;&lt;/div&gt;&lt;div&gt;Otel Collector&lt;br&gt;&lt;/div&gt;" style="html=1;whiteSpace=wrap;" vertex="1" parent="1">
          <mxGeometry x="280" y="280" width="160" height="80" as="geometry" />
        </mxCell>
        <mxCell id="USMtU_KTuxHWOxBqBWny-18" style="edgeStyle=orthogonalEdgeStyle;rounded=0;orthogonalLoop=1;jettySize=auto;html=1;entryX=0;entryY=0.5;entryDx=0;entryDy=0;" edge="1" parent="1" source="USMtU_KTuxHWOxBqBWny-8" target="USMtU_KTuxHWOxBqBWny-14">
          <mxGeometry relative="1" as="geometry" />
        </mxCell>
        <mxCell id="USMtU_KTuxHWOxBqBWny-8" value="&lt;div&gt;Container 4&lt;/div&gt;&lt;div&gt;&lt;br&gt;&lt;/div&gt;&lt;div&gt;Rust / Warp&lt;br&gt;&lt;/div&gt;&lt;div&gt;&lt;br&gt;&lt;/div&gt;&lt;div&gt;Promtail&lt;br&gt;&lt;/div&gt;" style="html=1;whiteSpace=wrap;" vertex="1" parent="1">
          <mxGeometry x="280" y="400" width="160" height="80" as="geometry" />
        </mxCell>
        <mxCell id="USMtU_KTuxHWOxBqBWny-19" style="edgeStyle=orthogonalEdgeStyle;rounded=0;orthogonalLoop=1;jettySize=auto;html=1;entryX=0;entryY=0.5;entryDx=0;entryDy=0;" edge="1" parent="1" source="USMtU_KTuxHWOxBqBWny-9" target="USMtU_KTuxHWOxBqBWny-14">
          <mxGeometry relative="1" as="geometry" />
        </mxCell>
        <mxCell id="USMtU_KTuxHWOxBqBWny-9" value="&lt;div&gt;Container 5&lt;/div&gt;&lt;div&gt;&lt;br&gt;&lt;/div&gt;&lt;div&gt;Rust / Actix Web&lt;/div&gt;&lt;div&gt;&lt;br&gt;&lt;/div&gt;&lt;div&gt;Fluent Bit&lt;br&gt;&lt;/div&gt;" style="html=1;whiteSpace=wrap;" vertex="1" parent="1">
          <mxGeometry x="280" y="520" width="160" height="80" as="geometry" />
        </mxCell>
        <mxCell id="USMtU_KTuxHWOxBqBWny-14" value="Grafana Loki" style="html=1;whiteSpace=wrap;" vertex="1" parent="1">
          <mxGeometry x="640" y="280" width="160" height="80" as="geometry" />
        </mxCell>
        <mxCell id="USMtU_KTuxHWOxBqBWny-20" value="" style="verticalLabelPosition=bottom;html=1;verticalAlign=top;align=center;strokeColor=none;fillColor=#00BEF2;shape=mxgraph.azure.vhd_data_disk;pointerEvents=1;" vertex="1" parent="1">
          <mxGeometry x="880" y="295" width="37.5" height="50" as="geometry" />
        </mxCell>
        <mxCell id="USMtU_KTuxHWOxBqBWny-21" style="edgeStyle=orthogonalEdgeStyle;rounded=0;orthogonalLoop=1;jettySize=auto;html=1;entryX=0;entryY=0.5;entryDx=0;entryDy=0;entryPerimeter=0;" edge="1" parent="1" source="USMtU_KTuxHWOxBqBWny-14" target="USMtU_KTuxHWOxBqBWny-20">
          <mxGeometry relative="1" as="geometry" />
        </mxCell>
        <mxCell id="USMtU_KTuxHWOxBqBWny-24" style="edgeStyle=orthogonalEdgeStyle;rounded=0;orthogonalLoop=1;jettySize=auto;html=1;entryX=0.5;entryY=0;entryDx=0;entryDy=0;" edge="1" parent="1" source="USMtU_KTuxHWOxBqBWny-23" target="USMtU_KTuxHWOxBqBWny-14">
          <mxGeometry relative="1" as="geometry" />
        </mxCell>
        <mxCell id="USMtU_KTuxHWOxBqBWny-25" value="&lt;font style=&quot;font-size: 14px;&quot;&gt;LogQL&lt;/font&gt;" style="edgeLabel;html=1;align=center;verticalAlign=middle;resizable=0;points=[];" vertex="1" connectable="0" parent="USMtU_KTuxHWOxBqBWny-24">
          <mxGeometry x="-0.2292" y="6" relative="1" as="geometry">
            <mxPoint x="-6" y="9" as="offset" />
          </mxGeometry>
        </mxCell>
        <mxCell id="USMtU_KTuxHWOxBqBWny-23" value="Grafana" style="html=1;whiteSpace=wrap;" vertex="1" parent="1">
          <mxGeometry x="640" y="40" width="160" height="80" as="geometry" />
        </mxCell>
      </root>
    </mxGraphModel>
  </diagram>
</mxfile>
